<?xml version="1.0" encoding="iso-8859-1"?>
<!-- Uploaded to: SVG Repo, www.svgrepo.com, Generator: SVG Repo Mixer Tools -->
<svg height="800px" width="800px" version="1.1" id="Layer_1" xmlns="http://www.w3.org/2000/svg" xmlns:xlink="http://www.w3.org/1999/xlink" 
	 viewBox="0 0 512 512" xml:space="preserve">
<g transform="translate(1 1)">
	<path style="fill:#FFE100;" d="M7.533,473.411V258.465c0-16.051,13.013-29.065,29.056-29.065h436.821
		c16.043,0,29.056,13.013,29.056,29.065v214.946c0,16.051-13.013,29.056-29.056,29.056H36.589
		C20.547,502.467,7.533,489.462,7.533,473.411"/>
	<path style="fill:#63D3FD;" d="M246.774,431.188c-0.085,1.007-0.307,1.98-0.307,3.012c0,18.85,15.283,34.133,34.133,34.133
		c18.859,0,34.133-15.283,34.133-34.133c0-1.186-0.23-2.296-0.341-3.447C288.562,435.233,269.464,435.301,246.774,431.188"/>
	<path style="fill:#00DA6C;" d="M225.185,426.392c40.192,10.266,64,10.581,110.839,0l38.443-9.259
		c-18.978-18.21-25.6-41.464-25.6-67.217v-35.183c0.154-23.646-20.07-37.367-36.233-44.493c-20.25-8.934-43.81-8.968-64.026,0.026
		c-16.026,7.134-36.122,20.847-36.275,44.467v35.183c0,25.754-6.622,49.007-25.6,67.217L225.185,426.392z"/>
	<g>
		<path style="fill:#FFE100;" d="M41.667,195.267c-4.71,0-8.533-3.823-8.533-8.533C33.133,125.566,82.9,75.8,144.067,75.8
			c4.71,0,8.533,3.823,8.533,8.533s-3.823,8.533-8.533,8.533c-51.755,0-93.867,42.112-93.867,93.867
			C50.2,191.444,46.377,195.267,41.667,195.267z"/>
		<path style="fill:#FFE100;" d="M135.533,144.067c-2.185,0-4.369-0.836-6.033-2.5c-3.336-3.336-3.336-8.73,0-12.066l51.2-51.2
			c3.337-3.336,8.73-3.336,12.066,0c3.337,3.336,3.337,8.73,0,12.066l-51.2,51.2C139.902,143.23,137.718,144.067,135.533,144.067z"
			/>
		<path style="fill:#FFE100;" d="M186.733,92.867c-2.184,0-4.369-0.836-6.033-2.5l-51.2-51.2c-3.336-3.336-3.336-8.73,0-12.066
			c3.336-3.336,8.73-3.336,12.066,0l51.2,51.2c3.337,3.336,3.337,8.73,0,12.066C191.102,92.03,188.918,92.867,186.733,92.867z"/>
		<path style="fill:#FFE100;" d="M186.733,92.867h-42.667c-4.71,0-8.533-3.823-8.533-8.533s3.823-8.533,8.533-8.533h42.667
			c4.71,0,8.533,3.823,8.533,8.533S191.444,92.867,186.733,92.867z"/>
	</g>
	<path style="fill:#FFA800;" d="M473.402,229.4h-17.067c16.051,0,29.056,13.013,29.056,29.056v214.946
		c0,16.051-13.005,29.065-29.056,29.065h17.067c16.051,0,29.056-13.013,29.056-29.065V258.456
		C502.458,242.413,489.453,229.4,473.402,229.4"/>
	<path style="fill:#FFFFFF;" d="M36.589,229.4h17.067c-16.051,0-29.056,13.013-29.056,29.056v214.946
		c0,16.051,13.005,29.065,29.056,29.065H36.589c-16.051,0-29.056-13.013-29.056-29.065V258.456
		C7.533,242.413,20.547,229.4,36.589,229.4"/>
	<path style="fill:#63D3FD;" d="M58.733,391.533c-14.14,0-25.6-11.46-25.6-25.6c0-14.14,11.46-25.6,25.6-25.6s25.6,11.46,25.6,25.6
		C84.333,380.073,72.873,391.533,58.733,391.533"/>
	<g>
		<path style="fill:#FFE100;" d="M276.333,67.267h-4.267c-4.719,0-8.533-3.823-8.533-8.533s3.814-8.533,8.533-8.533h4.267
			c4.719,0,8.533,3.823,8.533,8.533S281.052,67.267,276.333,67.267z"/>
		<path style="fill:#FFE100;" d="M350.531,67.267h-9.276c-4.719,0-8.533-3.823-8.533-8.533s3.814-8.533,8.533-8.533h9.276
			c4.719,0,8.533,3.823,8.533,8.533S355.25,67.267,350.531,67.267z M313.436,67.267h-9.276c-4.719,0-8.533-3.823-8.533-8.533
			s3.814-8.533,8.533-8.533h9.276c4.719,0,8.533,3.823,8.533,8.533S318.147,67.267,313.436,67.267z"/>
		<path style="fill:#FFE100;" d="M461.839,67.267h-9.276c-4.719,0-8.533-3.823-8.533-8.533s3.814-8.533,8.533-8.533h9.276
			c4.719,0,8.533,3.823,8.533,8.533S466.559,67.267,461.839,67.267z M424.737,67.267h-9.276c-4.719,0-8.533-3.823-8.533-8.533
			s3.814-8.533,8.533-8.533h9.276c4.719,0,8.533,3.823,8.533,8.533S429.447,67.267,424.737,67.267z M387.634,67.267h-9.276
			c-4.719,0-8.533-3.823-8.533-8.533s3.814-8.533,8.533-8.533h9.276c4.719,0,8.533,3.823,8.533,8.533S392.353,67.267,387.634,67.267
			z"/>
		<path style="fill:#FFE100;" d="M493.933,67.267h-4.267c-4.719,0-8.533-3.823-8.533-8.533s3.814-8.533,8.533-8.533h4.267
			c4.719,0,8.533,3.823,8.533,8.533S498.652,67.267,493.933,67.267z"/>
		<path style="fill:#FFE100;" d="M473.411,16.067h-4.267c-4.719,0-8.533-3.823-8.533-8.533S464.425-1,469.144-1h4.267
			c4.719,0,8.533,3.823,8.533,8.533S478.121,16.067,473.411,16.067z"/>
		<path style="fill:#FFE100;" d="M441.291,16.067h-9.284c-4.719,0-8.533-3.823-8.533-8.533S427.288-1,432.007-1h9.284
			c4.719,0,8.533,3.823,8.533,8.533S446.01,16.067,441.291,16.067z M404.163,16.067h-9.293c-4.719,0-8.533-3.823-8.533-8.533
			S390.151-1,394.87-1h9.293c4.719,0,8.533,3.823,8.533,8.533S408.882,16.067,404.163,16.067z"/>
		<path style="fill:#FFE100;" d="M237.933,205.737c-4.71,0-8.533-3.823-8.533-8.533v-9.284c0-4.71,3.823-8.533,8.533-8.533
			s8.533,3.823,8.533,8.533v9.284C246.467,201.914,242.644,205.737,237.933,205.737z M237.933,168.6
			c-4.71,0-8.533-3.823-8.533-8.533v-9.284c0-4.71,3.823-8.533,8.533-8.533s8.533,3.823,8.533,8.533v9.284
			C246.467,164.786,242.644,168.6,237.933,168.6z M237.933,131.471c-4.71,0-8.533-3.823-8.533-8.533v-9.284
			c0-4.71,3.823-8.533,8.533-8.533s8.533,3.823,8.533,8.533v9.284C246.467,127.657,242.644,131.471,237.933,131.471z
			 M237.933,94.352c-4.71,0-8.533-3.823-8.533-8.533v-9.284c0-4.71,3.823-8.533,8.533-8.533s8.533,3.823,8.533,8.533v9.284
			C246.467,90.529,242.644,94.352,237.933,94.352z M237.933,57.223c-4.71,0-8.533-3.823-8.533-8.533v-9.284
			c0-4.71,3.823-8.533,8.533-8.533s8.533,3.823,8.533,8.533v9.284C246.467,53.4,242.644,57.223,237.933,57.223z M248.062,23.09
			c-2.398,0-4.787-1.007-6.477-2.97c-3.072-3.576-2.671-8.96,0.905-12.032c3.055-2.628,6.477-4.727,10.189-6.255
			c4.343-1.818,9.344,0.273,11.145,4.634c1.801,4.352-0.273,9.344-4.634,11.145c-2.022,0.836-3.9,1.988-5.572,3.422
			C252.005,22.407,250.025,23.09,248.062,23.09z M367.034,16.067h-9.284c-4.719,0-8.533-3.823-8.533-8.533S353.031-1,357.75-1h9.284
			c4.719,0,8.533,3.823,8.533,8.533S371.753,16.067,367.034,16.067z M329.906,16.067h-9.293c-4.719,0-8.533-3.823-8.533-8.533
			S315.894-1,320.613-1h9.293c4.719,0,8.533,3.823,8.533,8.533S334.625,16.067,329.906,16.067z M292.777,16.067h-9.284
			c-4.719,0-8.533-3.823-8.533-8.533S278.774-1,283.493-1h9.284c4.719,0,8.533,3.823,8.533,8.533S297.488,16.067,292.777,16.067z"/>
		<path style="fill:#FFE100;" d="M237.933,237.933c-4.71,0-8.533-3.823-8.533-8.533v-4.267c0-4.71,3.823-8.533,8.533-8.533
			s8.533,3.823,8.533,8.533v4.267C246.467,234.11,242.644,237.933,237.933,237.933z"/>
		<path style="fill:#FFE100;" d="M502.467,237.933c-4.719,0-8.533-3.823-8.533-8.533v-4.267c0-4.71,3.814-8.533,8.533-8.533
			c4.719,0,8.533,3.823,8.533,8.533v4.267C511,234.11,507.186,237.933,502.467,237.933z"/>
		<path style="fill:#FFE100;" d="M502.467,205.84c-4.719,0-8.533-3.823-8.533-8.533v-9.276c0-4.71,3.814-8.533,8.533-8.533
			c4.719,0,8.533,3.823,8.533,8.533v9.276C511,202.025,507.186,205.84,502.467,205.84z M502.467,168.736
			c-4.719,0-8.533-3.823-8.533-8.533v-9.276c0-4.71,3.814-8.533,8.533-8.533c4.719,0,8.533,3.823,8.533,8.533v9.276
			C511,164.914,507.186,168.736,502.467,168.736z"/>
		<path style="fill:#FFE100;" d="M502.467,131.634c-4.719,0-8.533-3.823-8.533-8.533v-9.276c0-4.71,3.814-8.533,8.533-8.533
			c4.719,0,8.533,3.823,8.533,8.533v9.276C511,127.819,507.186,131.634,502.467,131.634z M502.467,94.531
			c-4.719,0-8.533-3.823-8.533-8.533v-9.276c0-4.71,3.814-8.533,8.533-8.533c4.719,0,8.533,3.823,8.533,8.533v9.276
			C511,90.716,507.186,94.531,502.467,94.531z M502.467,57.436c-4.719,0-8.533-3.823-8.533-8.533v-9.276
			c0-4.71,3.814-8.533,8.533-8.533c4.719,0,8.533,3.823,8.533,8.533v9.276C511,53.613,507.186,57.436,502.467,57.436z"/>
		<path style="fill:#FFE100;" d="M502.467,20.333c-4.719,0-8.533-3.823-8.533-8.533V7.533c0-4.71,3.814-8.533,8.533-8.533
			C507.186-1,511,2.823,511,7.533V11.8C511,16.51,507.186,20.333,502.467,20.333z"/>
	</g>
	<path d="M473.411,511H36.589C15.862,511-1,494.13-1,473.411V258.465c0-20.736,16.862-37.598,37.589-37.598h436.821
		c20.727,0,37.589,16.87,37.589,37.598v214.946C511,494.13,494.13,511,473.411,511z M36.589,237.933
		c-11.315,0-20.523,9.216-20.523,20.531v214.946c0,11.315,9.208,20.523,20.523,20.523h436.821c11.315,0,20.523-9.208,20.523-20.523
		V258.465c0-11.324-9.207-20.531-20.523-20.531H36.589z"/>
	<path d="M58.733,400.067c-18.824,0-34.133-15.309-34.133-34.133c0-18.824,15.309-34.133,34.133-34.133s34.133,15.309,34.133,34.133
		C92.867,384.758,77.558,400.067,58.733,400.067z M58.733,348.867c-9.412,0-17.067,7.654-17.067,17.067S49.321,383,58.733,383
		S75.8,375.346,75.8,365.933S68.146,348.867,58.733,348.867z"/>
	<path d="M109.933,511c-4.71,0-8.533-3.814-8.533-8.533V229.4c0-4.71,3.823-8.533,8.533-8.533c4.71,0,8.533,3.823,8.533,8.533
		v273.067C118.467,507.186,114.644,511,109.933,511z"/>
	<path d="M451.267,511c-4.719,0-8.533-3.814-8.533-8.533V229.4c0-4.71,3.814-8.533,8.533-8.533s8.533,3.823,8.533,8.533v273.067
		C459.8,507.186,455.986,511,451.267,511z"/>
	<path d="M476.867,374.467c-4.719,0-8.533-3.814-8.533-8.533V331.8c0-4.719,3.814-8.533,8.533-8.533
		c4.719,0,8.533,3.814,8.533,8.533v34.133C485.4,370.652,481.586,374.467,476.867,374.467z"/>
	<path d="M476.867,408.6c-4.719,0-8.533-3.814-8.533-8.533v-8.533c0-4.719,3.814-8.533,8.533-8.533c4.719,0,8.533,3.814,8.533,8.533
		v8.533C485.4,404.786,481.586,408.6,476.867,408.6z"/>
	<path d="M476.867,67.267h-8.533c-4.719,0-8.533-3.823-8.533-8.533s3.814-8.533,8.533-8.533h8.533c4.719,0,8.533,3.823,8.533,8.533
		S481.586,67.267,476.867,67.267z M442.733,67.267H434.2c-4.719,0-8.533-3.823-8.533-8.533s3.814-8.533,8.533-8.533h8.533
		c4.719,0,8.533,3.823,8.533,8.533S447.452,67.267,442.733,67.267z M408.6,67.267h-8.533c-4.719,0-8.533-3.823-8.533-8.533
		s3.814-8.533,8.533-8.533h8.533c4.719,0,8.533,3.823,8.533,8.533S413.319,67.267,408.6,67.267z M374.467,67.267h-8.533
		c-4.719,0-8.533-3.823-8.533-8.533s3.814-8.533,8.533-8.533h8.533c4.719,0,8.533,3.823,8.533,8.533S379.186,67.267,374.467,67.267z
		 M340.333,67.267H331.8c-4.719,0-8.533-3.823-8.533-8.533s3.814-8.533,8.533-8.533h8.533c4.719,0,8.533,3.823,8.533,8.533
		S345.052,67.267,340.333,67.267z M306.2,67.267h-8.533c-4.719,0-8.533-3.823-8.533-8.533s3.814-8.533,8.533-8.533h8.533
		c4.719,0,8.533,3.823,8.533,8.533S310.919,67.267,306.2,67.267z M272.067,67.267h-8.533c-4.71,0-8.533-3.823-8.533-8.533
		s3.823-8.533,8.533-8.533h8.533c4.719,0,8.533,3.823,8.533,8.533S276.786,67.267,272.067,67.267z"/>
	<path d="M502.467,266.989c-4.719,0-8.533-3.823-8.533-8.533v-4.267c0-4.71,3.814-8.533,8.533-8.533
		c4.719,0,8.533,3.823,8.533,8.533v4.267C511,263.175,507.186,266.989,502.467,266.989z"/>
	<path d="M502.467,237.293c-4.719,0-8.533-3.823-8.533-8.533v-8.482c0-4.71,3.814-8.533,8.533-8.533
		c4.719,0,8.533,3.823,8.533,8.533v8.482C511,233.47,507.186,237.293,502.467,237.293z M502.467,203.373
		c-4.719,0-8.533-3.823-8.533-8.533v-8.482c0-4.71,3.814-8.533,8.533-8.533c4.719,0,8.533,3.823,8.533,8.533v8.482
		C511,199.551,507.186,203.373,502.467,203.373z"/>
	<path d="M237.933,208.169c-4.71,0-8.533-3.823-8.533-8.533v-8.482c0-4.71,3.823-8.533,8.533-8.533s8.533,3.823,8.533,8.533v8.482
		C246.467,204.346,242.644,208.169,237.933,208.169z M237.933,174.249c-4.71,0-8.533-3.823-8.533-8.533v-8.482
		c0-4.71,3.823-8.533,8.533-8.533s8.533,3.823,8.533,8.533v8.482C246.467,170.426,242.644,174.249,237.933,174.249z
		 M502.467,169.462c-4.719,0-8.533-3.823-8.533-8.533v-8.482c0-4.71,3.814-8.533,8.533-8.533c4.719,0,8.533,3.823,8.533,8.533v8.482
		C511,165.639,507.186,169.462,502.467,169.462z M237.933,140.329c-4.71,0-8.533-3.823-8.533-8.533v-8.482
		c0-4.71,3.823-8.533,8.533-8.533s8.533,3.823,8.533,8.533v8.482C246.467,136.506,242.644,140.329,237.933,140.329z
		 M502.467,135.542c-4.719,0-8.533-3.823-8.533-8.533v-8.482c0-4.71,3.814-8.533,8.533-8.533c4.719,0,8.533,3.823,8.533,8.533v8.482
		C511,131.719,507.186,135.542,502.467,135.542z M237.933,106.409c-4.71,0-8.533-3.823-8.533-8.533v-8.482
		c0-4.71,3.823-8.533,8.533-8.533s8.533,3.823,8.533,8.533v8.482C246.467,102.586,242.644,106.409,237.933,106.409z
		 M502.467,101.622c-4.719,0-8.533-3.823-8.533-8.533v-8.482c0-4.71,3.814-8.533,8.533-8.533c4.719,0,8.533,3.823,8.533,8.533v8.482
		C511,97.799,507.186,101.622,502.467,101.622z M237.933,72.489c-4.71,0-8.533-3.823-8.533-8.533v-8.482
		c0-4.71,3.823-8.533,8.533-8.533s8.533,3.823,8.533,8.533v8.482C246.467,68.666,242.644,72.489,237.933,72.489z M502.467,67.702
		c-4.719,0-8.533-3.823-8.533-8.533v-8.482c0-4.71,3.814-8.533,8.533-8.533c4.719,0,8.533,3.823,8.533,8.533v8.482
		C511,63.888,507.186,67.702,502.467,67.702z M238.667,38.629c-0.632,0-1.271-0.068-1.911-0.213
		c-4.599-1.049-7.467-5.632-6.409-10.223c0.819-3.576,2.15-7.006,3.977-10.197c2.33-4.088,7.543-5.53,11.639-3.183
		c4.087,2.338,5.512,7.543,3.183,11.64c-0.99,1.741-1.724,3.601-2.167,5.547C246.074,35.949,242.558,38.629,238.667,38.629z
		 M500.282,34.072c-3.362,0-6.545-1.997-7.893-5.299c-0.759-1.835-1.783-3.558-3.055-5.12c-2.97-3.661-2.415-9.037,1.246-12.007
		c3.661-2.978,9.037-2.415,12.006,1.237c2.321,2.859,4.207,6.024,5.589,9.404c1.792,4.36-0.29,9.344-4.651,11.136
		C502.467,33.867,501.366,34.072,500.282,34.072z M261.818,16.527c-4.062,0-7.654-2.901-8.388-7.032
		c-0.828-4.634,2.261-9.071,6.904-9.899c2.193-0.392,4.437-0.589,6.665-0.589h3.294c4.719,0,8.533,3.823,8.533,8.533
		s-3.814,8.533-8.533,8.533h-3.294c-1.246,0-2.466,0.111-3.661,0.324C262.825,16.485,262.313,16.527,261.818,16.527z
		 M473.812,16.067h-8.482c-4.719,0-8.533-3.823-8.533-8.533S460.611-1,465.33-1h8.073c4.719,0,8.738,3.823,8.738,8.533
		S478.522,16.067,473.812,16.067z M439.883,16.067h-8.482c-4.719,0-8.533-3.823-8.533-8.533S426.682-1,431.401-1h8.482
		c4.719,0,8.533,3.823,8.533,8.533S444.602,16.067,439.883,16.067z M405.963,16.067h-8.482c-4.719,0-8.533-3.823-8.533-8.533
		S392.762-1,397.481-1h8.482c4.719,0,8.533,3.823,8.533,8.533S410.682,16.067,405.963,16.067z M372.043,16.067h-8.474
		c-4.719,0-8.533-3.823-8.533-8.533S358.851-1,363.57-1h8.474c4.719,0,8.533,3.823,8.533,8.533S376.762,16.067,372.043,16.067z
		 M338.123,16.067h-8.482c-4.719,0-8.533-3.823-8.533-8.533S324.922-1,329.641-1h8.482c4.719,0,8.533,3.823,8.533,8.533
		S342.842,16.067,338.123,16.067z M304.212,16.067h-8.482c-4.719,0-8.533-3.823-8.533-8.533S291.011-1,295.73-1h8.482
		c4.719,0,8.533,3.823,8.533,8.533S308.922,16.067,304.212,16.067z"/>
	<path d="M237.933,237.933c-4.71,0-8.533-3.823-8.533-8.533v-4.267c0-4.71,3.823-8.533,8.533-8.533s8.533,3.823,8.533,8.533v4.267
		C246.467,234.11,242.644,237.933,237.933,237.933z"/>
	<path d="M33.133,186.733c-4.71,0-8.533-3.823-8.533-8.533c0-61.167,49.766-110.933,110.933-110.933c4.71,0,8.533,3.823,8.533,8.533
		s-3.823,8.533-8.533,8.533c-51.755,0-93.867,42.112-93.867,93.867C41.667,182.91,37.844,186.733,33.133,186.733z"/>
	<path d="M127,135.533c-2.185,0-4.369-0.836-6.033-2.5c-3.336-3.336-3.336-8.73,0-12.066l51.2-51.2c3.337-3.336,8.73-3.336,12.066,0
		c3.337,3.336,3.337,8.73,0,12.066l-51.2,51.2C131.369,134.697,129.185,135.533,127,135.533z"/>
	<path d="M178.2,84.333c-2.185,0-4.369-0.836-6.033-2.5l-51.2-51.2c-3.336-3.336-3.336-8.73,0-12.066s8.73-3.336,12.066,0l51.2,51.2
		c3.337,3.336,3.337,8.73,0,12.066C182.569,83.497,180.385,84.333,178.2,84.333z"/>
	<path d="M178.2,84.333h-42.667c-4.71,0-8.533-3.823-8.533-8.533s3.823-8.533,8.533-8.533H178.2c4.71,0,8.533,3.823,8.533,8.533
		S182.91,84.333,178.2,84.333z"/>
	<path d="M278.578,442.691c-17.596,0-34.5-2.671-55.45-8.013l-38.391-9.242c-3.029-0.734-5.427-3.055-6.238-6.076
		c-0.811-3.012,0.077-6.221,2.33-8.38c15.462-14.831,22.972-34.799,22.972-61.056v-35.191c0.145-21.914,14.822-40.457,41.335-52.267
		c22.494-10.001,48.358-10.01,70.938-0.034c26.795,11.81,41.463,30.404,41.327,52.352v35.132c0,26.248,7.518,46.225,22.972,61.056
		c2.253,2.159,3.14,5.376,2.321,8.38c-0.811,3.021-3.2,5.342-6.229,6.076l-38.443,9.259
		C314.401,440.028,296.148,442.691,278.578,442.691z M202.503,412.15l24.678,5.939c0.043,0.017,0.077,0.026,0.12,0.034
		c39.279,10.035,62.251,10.027,106.846-0.06l24.559-5.914c-12.339-16.555-18.364-37.06-18.364-62.234v-35.183
		c0.12-18.927-16.87-30.396-31.138-36.685c-18.202-8.03-39.014-8.03-57.114,0.017c-14.165,6.298-31.087,17.792-31.206,36.727v35.123
		C220.867,375.09,214.834,395.595,202.503,412.15z"/>
	<path d="M280.6,476.867c-23.526,0-42.667-19.14-42.667-42.667c0-1.041,0.111-2.048,0.256-3.046
		c0.205-2.389,1.451-4.932,3.362-6.391c1.911-1.459,4.378-2.372,6.75-1.963c21.837,3.959,39.97,3.832,64.64-0.444
		c2.338-0.41,4.753,0.179,6.639,1.621c1.894,1.451,3.089,3.618,3.311,5.982l0.111,0.862c0.154,1.118,0.273,2.227,0.273,3.379
		C323.267,457.726,304.126,476.867,280.6,476.867z M256.161,441.291c3.157,10.863,12.928,18.509,24.439,18.509
		c11.836,0,21.82-8.073,24.73-19.004C287.512,443.237,272.434,443.39,256.161,441.291z"/>
</g>
</svg>